<?xml version="1.0" encoding="UTF-8"?>
<!DOCTYPE svg PUBLIC "-//W3C//DTD SVG 1.1//EN" "http://www.w3.org/Graphics/SVG/1.1/DTD/svg11.dtd">
<svg xmlns="http://www.w3.org/2000/svg" version="1.1" width="170px" height="53px" style="shape-rendering:geometricPrecision; text-rendering:geometricPrecision; image-rendering:optimizeQuality; fill-rule:evenodd; clip-rule:evenodd" xmlns:xlink="http://www.w3.org/1999/xlink">
<g><path style="opacity:1" fill="#0a9ad9" d="M 22.5,-0.5 C 23.1667,-0.5 23.8333,-0.5 24.5,-0.5C 27.6753,3.18242 31.1753,6.84909 35,10.5C 35.9042,13.3977 37.2376,16.0644 39,18.5C 39.3826,17.944 39.8826,17.6107 40.5,17.5C 40.5,18.5 40.5,19.5 40.5,20.5C 39.1667,24.1667 39.1667,27.8333 40.5,31.5C 39.8944,35.7333 38.3944,39.7333 36,43.5C 32.8967,47.114 29.3967,50.114 25.5,52.5C 24.5,52.5 23.5,52.5 22.5,52.5C 22.5,49.8333 22.5,47.1667 22.5,44.5C 34.2234,38.1419 37.7234,28.4752 33,15.5C 30.0372,12.3729 26.8706,9.37286 23.5,6.5C 22.5344,4.60395 22.2011,2.60395 22.5,0.5C 22.5,0.166667 22.5,-0.166667 22.5,-0.5 Z"/></g>
<g><path style="opacity:0.595" fill="#fefffe" d="M 119.5,24.5 C 117.56,27.0412 115.393,27.0412 113,24.5C 112.161,25.6241 110.994,26.2908 109.5,26.5C 105.146,26.1463 100.813,26.1463 96.5,26.5C 95.8333,23.1667 95.1667,19.8333 94.5,16.5C 92.1667,16.5 89.8333,16.5 87.5,16.5C 87.5,18.5 87.5,20.5 87.5,22.5C 89.8333,22.5 92.1667,22.5 94.5,22.5C 94.5,23.8333 94.5,25.1667 94.5,26.5C 90.8183,26.6653 87.1516,26.4986 83.5,26C 82.0437,23.7342 81.2104,21.2342 81,18.5C 79.5754,23.9561 76.0754,26.6227 70.5,26.5C 70.3433,25.1266 70.51,23.7932 71,22.5C 73.8739,21.4678 75.3739,19.4678 75.5,16.5C 73.8333,16.5 72.1667,16.5 70.5,16.5C 70.5,15.1667 70.5,13.8333 70.5,12.5C 78.5,12.5 86.5,12.5 94.5,12.5C 94.8844,10.0706 95.551,7.73729 96.5,5.5C 98.1667,5.5 99.8333,5.5 101.5,5.5C 101.281,6.67504 101.614,7.67504 102.5,8.5C 103.929,7.06497 105.595,6.06497 107.5,5.5C 110.449,6.30221 113.449,6.63554 116.5,6.5C 116.67,7.82207 116.337,8.98873 115.5,10C 117.032,10.6995 118.032,11.8662 118.5,13.5C 118.945,16.2179 118.279,18.8846 116.5,21.5C 117.548,22.548 118.548,23.548 119.5,24.5 Z M 94.5,16.5 C 94.272,14.6453 94.9387,13.8119 96.5,14C 95.9341,14.9947 95.2674,15.828 94.5,16.5 Z"/></g>
<g><path style="opacity:0.575" fill="#fefffe" d="M 119.5,24.5 C 119.02,21.3148 119.686,18.4815 121.5,16C 119.893,14.951 119.227,13.451 119.5,11.5C 123.5,11.1667 123.5,10.8333 119.5,10.5C 119.5,9.16667 119.5,7.83333 119.5,6.5C 124.846,6.12071 130.013,6.78738 135,8.5C 135.483,7.55198 135.649,6.55198 135.5,5.5C 137.5,5.5 139.5,5.5 141.5,5.5C 141.069,10.032 141.569,14.3654 143,18.5C 143.585,16.8707 144.419,15.3707 145.5,14C 144.704,12.9079 144.037,11.7412 143.5,10.5C 144.547,8.94359 145.214,7.27692 145.5,5.5C 147.167,5.5 148.833,5.5 150.5,5.5C 150.5,6.5 150.5,7.5 150.5,8.5C 152.331,7.94784 153.997,7.94784 155.5,8.5C 156.386,7.67504 156.719,6.67504 156.5,5.5C 158.167,5.5 159.833,5.5 161.5,5.5C 161.281,6.67504 161.614,7.67504 162.5,8.5C 164.003,7.94784 165.669,7.94784 167.5,8.5C 167.5,9.83333 167.5,11.1667 167.5,12.5C 165.473,12.3379 163.473,12.5045 161.5,13C 163.134,13.4935 164.801,13.6602 166.5,13.5C 167.039,16.695 166.039,19.195 163.5,21C 166.426,21.687 167.759,23.5203 167.5,26.5C 164.455,26.6582 161.621,25.9915 159,24.5C 154.033,26.2914 148.866,26.958 143.5,26.5C 143.328,24.5082 143.995,22.8415 145.5,21.5C 144.609,20.4104 143.609,20.4104 142.5,21.5C 141.548,23.0453 141.215,24.712 141.5,26.5C 139.5,26.5 137.5,26.5 135.5,26.5C 136.679,22.0402 135.179,21.3735 131,24.5C 129.118,23.9067 128.118,22.5733 128,20.5C 127.505,22.4727 127.338,24.4727 127.5,26.5C 124.583,26.6349 121.916,25.9682 119.5,24.5 Z M 150.5,12.5 C 158.176,12.4561 158.342,13.1228 151,14.5C 150.536,13.9056 150.369,13.2389 150.5,12.5 Z M 130.5,16.5 C 132.086,17.1481 133.753,17.6481 135.5,18C 134.128,18.4017 132.795,18.9017 131.5,19.5C 130.614,18.675 130.281,17.675 130.5,16.5 Z M 151.5,18.5 C 152.683,19.5045 154.016,20.3378 155.5,21C 153.919,21.7065 152.419,22.5399 151,23.5C 150.36,21.735 150.527,20.0683 151.5,18.5 Z"/></g>
<g><path style="opacity:0.465" fill="#fefffe" d="M 72.5,6.5 C 78.8333,6.5 85.1667,6.5 91.5,6.5C 91.5,8.16667 91.5,9.83333 91.5,11.5C 85.1667,11.5 78.8333,11.5 72.5,11.5C 72.5,9.83333 72.5,8.16667 72.5,6.5 Z"/></g>
<g><path style="opacity:0.969" fill="#6abce7" d="M 20.5,-0.5 C 21.1667,-0.5 21.8333,-0.5 22.5,-0.5C 22.5,-0.166667 22.5,0.166667 22.5,0.5C 21.4095,3.68119 21.4095,7.01453 22.5,10.5C 22.5,10.8333 22.5,11.1667 22.5,11.5C 21.8333,11.1667 21.1667,10.8333 20.5,10.5C 20.5,6.83333 20.5,3.16667 20.5,-0.5 Z"/></g>
<g><path style="opacity:0.969" fill="#99ccee" d="M 20.5,10.5 C 21.1667,10.8333 21.8333,11.1667 22.5,11.5C 22.5,12.8333 22.5,14.1667 22.5,15.5C 21.8333,15.1667 21.1667,14.8333 20.5,14.5C 20.5,13.1667 20.5,11.8333 20.5,10.5 Z"/></g>
<g><path style="opacity:0.36" fill="#edf8fd" d="M 6.5,11.5 C 6.5,21.1667 6.5,30.8333 6.5,40.5C 4.82351,39.8166 4.15684,38.4832 4.5,36.5C 3.86496,27.7663 4.53163,19.4329 6.5,11.5 Z"/></g>
<g><path style="opacity:0.188" fill="#20a3dd" d="M 24.5,-0.5 C 24.8333,-0.5 25.1667,-0.5 25.5,-0.5C 29.4153,1.97415 32.9153,4.97415 36,8.5C 37.5266,11.5531 39.0266,14.5531 40.5,17.5C 39.8826,17.6107 39.3826,17.944 39,18.5C 37.2376,16.0644 35.9042,13.3977 35,10.5C 31.1753,6.84909 27.6753,3.18242 24.5,-0.5 Z"/></g>
<g><path style="opacity:0.945" fill="#a1dbf7" d="M 3.5,10.5 C 4.79105,10.2627 5.79105,10.596 6.5,11.5C 4.53163,19.4329 3.86496,27.7663 4.5,36.5C 3.50698,28.0161 3.17364,19.3494 3.5,10.5 Z"/></g>
<g><path style="opacity:1" fill="#2aa4de" d="M 22.5,0.5 C 22.2011,2.60395 22.5344,4.60395 23.5,6.5C 26.8706,9.37286 30.0372,12.3729 33,15.5C 37.7234,28.4752 34.2234,38.1419 22.5,44.5C 25.8281,41.3235 28.6614,37.6568 31,33.5C 31.6667,28.8333 31.6667,24.1667 31,19.5C 30.7216,18.5842 30.2216,17.9175 29.5,17.5C 28.1667,14.1667 25.8333,11.8333 22.5,10.5C 21.4095,7.01453 21.4095,3.68119 22.5,0.5 Z"/></g>
<g><path style="opacity:1" fill="#aad3f0" d="M 20.5,14.5 C 21.1667,14.8333 21.8333,15.1667 22.5,15.5C 25.293,18.3703 26.6263,21.8703 26.5,26C 26.2384,30.615 24.905,34.7817 22.5,38.5C 21.9759,40.3057 21.3092,41.9724 20.5,43.5C 20.5,40.5 20.5,37.5 20.5,34.5C 21.4013,33.7095 22.0679,32.7095 22.5,31.5C 23.9723,29.8825 24.639,27.8825 24.5,25.5C 24.3333,24.1667 24.1667,22.8333 24,21.5C 23.6174,20.944 23.1174,20.6107 22.5,20.5C 22.1667,19.5 21.5,18.8333 20.5,18.5C 20.5,17.1667 20.5,15.8333 20.5,14.5 Z"/></g>
<g><path style="opacity:0.703" fill="#62c7f1" d="M 45.5,5.5 C 47.1003,6.25198 48.6003,7.25198 50,8.5C 51.6754,12.0042 53.342,15.0042 55,17.5C 55.6667,23.1667 55.6667,28.8333 55,34.5C 53.513,35.2529 53.3463,36.0862 54.5,37C 52.1819,40.4757 49.5152,43.6424 46.5,46.5C 46.2011,44.396 46.5344,42.396 47.5,40.5C 49.6999,38.7471 50.8666,36.4138 51,33.5C 51.8176,27.0983 51.4842,20.765 50,14.5C 49.2079,12.3563 47.7079,11.023 45.5,10.5C 45.5,8.83333 45.5,7.16667 45.5,5.5 Z"/></g>
<g><path style="opacity:1" fill="#9fd9f6" d="M 45.5,14.5 C 48.6303,19.3098 49.797,24.6432 49,30.5C 48.0513,32.0931 46.8846,33.4264 45.5,34.5C 45.5,27.8333 45.5,21.1667 45.5,14.5 Z"/></g>
<g><path style="opacity:1" fill="#81cff4" d="M 45.5,10.5 C 47.7079,11.023 49.2079,12.3563 50,14.5C 51.4842,20.765 51.8176,27.0983 51,33.5C 50.8666,36.4138 49.6999,38.7471 47.5,40.5C 46.5344,42.396 46.2011,44.396 46.5,46.5C 45.8333,46.5 45.1667,46.5 44.5,46.5C 45.4299,42.6002 45.7633,38.6002 45.5,34.5C 46.8846,33.4264 48.0513,32.0931 49,30.5C 49.797,24.6432 48.6303,19.3098 45.5,14.5C 45.5,13.1667 45.5,11.8333 45.5,10.5 Z"/></g>
<g><path style="opacity:1" fill="#79cdf3" d="M 3.5,10.5 C 3.17364,19.3494 3.50698,28.0161 4.5,36.5C 4.15684,38.4832 4.82351,39.8166 6.5,40.5C 5.29177,41.782 3.95844,41.782 2.5,40.5C 1.72549,38.6036 0.72549,36.937 -0.5,35.5C -0.5,29.5 -0.5,23.5 -0.5,17.5C 0.833333,15.1667 2.16667,12.8333 3.5,10.5 Z"/></g>
<g><path style="opacity:0.753" fill="#e2f3fc" d="M 45.5,5.5 C 45.5,7.16667 45.5,8.83333 45.5,10.5C 45.5,11.8333 45.5,13.1667 45.5,14.5C 45.5,21.1667 45.5,27.8333 45.5,34.5C 45.7633,38.6002 45.4299,42.6002 44.5,46.5C 43.8337,39.8417 43.5004,33.0084 43.5,26C 43.503,18.7991 44.1697,11.9658 45.5,5.5 Z"/></g>
<g><path style="opacity:0.969" fill="#deedf9" d="M 20.5,18.5 C 21.5,18.8333 22.1667,19.5 22.5,20.5C 22.5,24.1667 22.5,27.8333 22.5,31.5C 22.0679,32.7095 21.4013,33.7095 20.5,34.5C 20.5,29.1667 20.5,23.8333 20.5,18.5 Z"/></g>
<g><path style="opacity:1" fill="#c1def4" d="M 22.5,20.5 C 23.1174,20.6107 23.6174,20.944 24,21.5C 24.1667,22.8333 24.3333,24.1667 24.5,25.5C 24.639,27.8825 23.9723,29.8825 22.5,31.5C 22.5,27.8333 22.5,24.1667 22.5,20.5 Z"/></g>
<g><path style="opacity:1" fill="#6db8e7" d="M 22.5,10.5 C 25.8333,11.8333 28.1667,14.1667 29.5,17.5C 30.4625,21.796 30.6292,26.1294 30,30.5C 29.3918,32.0664 28.5585,33.3998 27.5,34.5C 27.8507,28.7383 27.3507,23.0716 26,17.5C 25.1841,16.1772 24.0174,15.5106 22.5,15.5C 22.5,14.1667 22.5,12.8333 22.5,11.5C 22.5,11.1667 22.5,10.8333 22.5,10.5 Z"/></g>
<g><path style="opacity:0.196" fill="#32aadf" d="M 40.5,20.5 C 41.8333,24.1667 41.8333,27.8333 40.5,31.5C 39.1667,27.8333 39.1667,24.1667 40.5,20.5 Z"/></g>
<g><path style="opacity:0.555" fill="#fefffe" d="M 94.5,30.5 C 95.6491,30.7911 96.3158,31.6244 96.5,33C 95.8333,36.3333 95.1667,39.6667 94.5,43C 94.2451,44.3261 93.5784,45.3261 92.5,46C 93.7932,46.49 95.1266,46.6567 96.5,46.5C 96.0833,43.9208 96.75,41.7542 98.5,40C 98.1667,39.6667 97.8333,39.3333 97.5,39C 102.371,33.8799 106.371,34.3799 109.5,40.5C 108.021,42.7653 106.687,45.0987 105.5,47.5C 104.312,48.84 102.812,49.5066 101,49.5C 97.2579,49.0454 93.4245,49.0454 89.5,49.5C 91.8166,41.0071 90.6499,40.0071 86,46.5C 85.5172,47.448 85.3505,48.448 85.5,49.5C 84.5,49.5 83.5,49.5 82.5,49.5C 82.6538,46.2192 82.6538,43.2192 82.5,40.5C 81.769,42.8048 80.4357,44.6382 78.5,46C 79.7112,46.8928 79.7112,47.7261 78.5,48.5C 76.0699,50.571 73.4033,50.9044 70.5,49.5C 72.1667,48.8333 73.8333,48.1667 75.5,47.5C 77.6918,43.7138 79.3585,39.7138 80.5,35.5C 78.7408,34.246 77.2408,34.5794 76,36.5C 76.4087,38.2251 76.2421,39.8918 75.5,41.5C 72.7188,40.2128 72.0521,38.2128 73.5,35.5C 74.8448,34.6533 75.8448,33.4866 76.5,32C 79.4816,31.502 82.4816,31.3354 85.5,31.5C 85.335,34.8499 85.5017,38.1832 86,41.5C 87.971,39.0051 90.471,36.3385 93.5,33.5C 94.1272,32.5832 94.4606,31.5832 94.5,30.5 Z M 102.5,37.5 C 104.026,38.1047 105.026,39.2714 105.5,41C 105.012,43.1761 104.012,45.0094 102.5,46.5C 101.054,45.8291 100.388,44.6624 100.5,43C 100.954,41.0614 101.621,39.228 102.5,37.5 Z"/></g>
<g><path style="opacity:0.558" fill="#fefffe" d="M 134.5,35.5 C 132.43,35.5827 132.097,36.5827 133.5,38.5C 132.259,40.9366 131.259,43.4366 130.5,46C 131.793,46.49 133.127,46.6567 134.5,46.5C 134.5,47.5 134.5,48.5 134.5,49.5C 131.833,49.5 129.167,49.5 126.5,49.5C 127.34,46.1763 127.84,42.8429 128,39.5C 126.572,43.3677 124.405,46.701 121.5,49.5C 120.679,46.5535 120.179,43.5535 120,40.5C 118.031,43.6079 116.197,46.7745 114.5,50C 112.098,50.8141 109.765,50.6474 107.5,49.5C 111.038,49.182 113.538,47.5154 115,44.5C 115.611,41.2472 116.778,38.2472 118.5,35.5C 116.114,34.4705 114.114,35.1372 112.5,37.5C 113.853,38.5237 114.52,39.857 114.5,41.5C 110.775,41.2204 109.608,39.2204 111,35.5C 113.9,31.8845 117.734,30.5511 122.5,31.5C 122.18,34.8984 122.513,38.2317 123.5,41.5C 126.167,38.1667 128.833,34.8333 131.5,31.5C 132.325,30.6143 133.325,30.281 134.5,30.5C 134.5,32.1667 134.5,33.8333 134.5,35.5 Z"/></g>
<g><path style="opacity:0.571" fill="#fefffe" d="M 134.5,35.5 C 134.991,32.8477 136.658,31.3477 139.5,31C 143.486,30.5012 147.486,30.3345 151.5,30.5C 151.785,32.288 151.452,33.9547 150.5,35.5C 149.614,34.675 149.281,33.675 149.5,32.5C 148.022,32.238 146.689,32.5713 145.5,33.5C 144.926,35.0589 144.26,36.5589 143.5,38C 145.519,37.8475 147.519,37.3475 149.5,36.5C 149.785,38.288 149.452,39.9547 148.5,41.5C 146.568,40.4798 144.568,40.3131 142.5,41C 142.833,41.3333 143.167,41.6667 143.5,42C 142.643,42.6891 141.977,43.5224 141.5,44.5C 144.012,45.7946 146.679,46.4613 149.5,46.5C 149.281,45.325 149.614,44.325 150.5,43.5C 151.807,44.8155 153.307,45.8155 155,46.5C 155.483,47.448 155.649,48.448 155.5,49.5C 158.833,50.1667 160.833,48.8333 161.5,45.5C 160.105,42.4516 158.439,39.6183 156.5,37C 157.978,31.2576 161.644,29.0909 167.5,30.5C 167.61,33.0588 166.944,35.3921 165.5,37.5C 164.548,35.9547 164.215,34.288 164.5,32.5C 159.109,35.4001 159.276,38.4001 165,41.5C 166.826,48.2823 164.159,51.6156 157,51.5C 154.296,51.8146 152.296,50.8146 151,48.5C 145.928,49.4714 140.762,49.8047 135.5,49.5C 135.5,48.5 135.5,47.5 135.5,46.5C 137.124,46.6399 138.29,45.9733 139,44.5C 139.826,41.2072 140.326,37.8738 140.5,34.5C 139.448,34.3505 138.448,34.5172 137.5,35C 137.833,35.3333 138.167,35.6667 138.5,36C 137.484,36.5194 136.818,37.3527 136.5,38.5C 139.456,41.5891 138.789,43.2558 134.5,43.5C 134.5,40.8333 134.5,38.1667 134.5,35.5 Z"/></g>
<g><path style="opacity:1" fill="#53b0e3" d="M 29.5,17.5 C 30.2216,17.9175 30.7216,18.5842 31,19.5C 31.6667,24.1667 31.6667,28.8333 31,33.5C 28.6614,37.6568 25.8281,41.3235 22.5,44.5C 22.5,47.1667 22.5,49.8333 22.5,52.5C 21.8333,52.5 21.1667,52.5 20.5,52.5C 20.5,49.5 20.5,46.5 20.5,43.5C 21.3092,41.9724 21.9759,40.3057 22.5,38.5C 24.7488,37.9202 26.4154,36.5869 27.5,34.5C 28.5585,33.3998 29.3918,32.0664 30,30.5C 30.6292,26.1294 30.4625,21.796 29.5,17.5 Z"/></g>
<g><path style="opacity:1" fill="#7fbfea" d="M 22.5,15.5 C 24.0174,15.5106 25.1841,16.1772 26,17.5C 27.3507,23.0716 27.8507,28.7383 27.5,34.5C 26.4154,36.5869 24.7488,37.9202 22.5,38.5C 24.905,34.7817 26.2384,30.615 26.5,26C 26.6263,21.8703 25.293,18.3703 22.5,15.5 Z"/></g>
</svg>
