<svg width="127" height="122.00000000000001" xmlns="http://www.w3.org/2000/svg" xmlns:undefined="http://sodipodi.sourceforge.net/DTD/sodipodi-0.dtd" version="1.1">
 <defs id="defs1">
  <clipPath id="clipPath28" clipPathUnits="userSpaceOnUse">
   <path id="path28" d="m-673.8252,271.29689l850.39,0l0,-425.2l-850.39,0l0,425.2z"/>
  </clipPath>
  <clipPath id="clipPath30" clipPathUnits="userSpaceOnUse">
   <path id="path30" d="m-609.96783,275.4522l850.39,0l0,-425.2l-850.39,0l0,425.2z"/>
  </clipPath>
  <clipPath id="clipPath32" clipPathUnits="userSpaceOnUse">
   <path id="path32" d="m-707.74225,282.81349l850.39,0l0,-425.2l-850.39,0l0,425.2z"/>
  </clipPath>
  <clipPath id="clipPath34" clipPathUnits="userSpaceOnUse">
   <path id="path34" d="m-654.34961,288.44631l850.39,0l0,-425.2l-850.39,0l0,425.2z"/>
  </clipPath>
  <clipPath id="clipPath36" clipPathUnits="userSpaceOnUse">
   <path id="path36" d="m-585.83014,271.29689l850.39,0l0,-425.2l-850.39,0l0,425.2z"/>
  </clipPath>
  <clipPath id="clipPath38" clipPathUnits="userSpaceOnUse">
   <path id="path38" d="m-573.94043,271.29689l850.39,0l0,-425.2l-850.39,0l0,425.2z"/>
  </clipPath>
  <clipPath id="clipPath40" clipPathUnits="userSpaceOnUse">
   <path id="path40" d="m0,425.2l850.39,0l0,-425.2l-850.39,0l0,425.2z"/>
  </clipPath>
  <clipPath id="clipPath42" clipPathUnits="userSpaceOnUse">
   <path id="path42" d="m-601.75592,229.0107l850.39,0l0,-425.2l-850.39,0l0,425.2z"/>
  </clipPath>
  <clipPath id="clipPath44" clipPathUnits="userSpaceOnUse">
   <path id="path44" d="m0,425.2l850.39,0l0,-425.2l-850.39,0l0,425.2z"/>
  </clipPath>
  <clipPath id="clipPath46" clipPathUnits="userSpaceOnUse">
   <path id="path46" d="m-550.47174,245.30271l850.39,0l0,-425.2l-850.39,0l0,425.2z"/>
  </clipPath>
  <clipPath id="clipPath48" clipPathUnits="userSpaceOnUse">
   <path id="path48" d="m-654.30762,235.86429l850.39,0l0,-425.2l-850.39,0l0,425.2z"/>
  </clipPath>
  <clipPath id="clipPath50" clipPathUnits="userSpaceOnUse">
   <path id="path50" d="m-646.85254,233.79979l850.39,0l0,-425.2l-850.39,0l0,425.2z"/>
  </clipPath>
  <clipPath id="clipPath52" clipPathUnits="userSpaceOnUse">
   <path id="path52" d="m-671.42975,229.0566l850.39,0l0,-425.2l-850.39,0l0,425.2z"/>
  </clipPath>
  <clipPath id="clipPath54" clipPathUnits="userSpaceOnUse">
   <path id="path54" d="m-687.73932,229.0566l850.39,0l0,-425.2l-850.39,0l0,425.2z"/>
  </clipPath>
  <clipPath id="clipPath56" clipPathUnits="userSpaceOnUse">
   <path id="path56" d="m-654.30762,244.6865l850.39,0l0,-425.2l-850.39,0l0,425.2z"/>
  </clipPath>
  <clipPath id="clipPath58" clipPathUnits="userSpaceOnUse">
   <path id="path58" d="m-699.21094,246.0098l850.39,0l0,-425.2l-850.39,0l0,425.2z"/>
  </clipPath>
  <clipPath id="clipPath60" clipPathUnits="userSpaceOnUse">
   <path id="path60" d="m-348.9707,214.2266l850.39,0l0,-425.2l-850.39,0l0,425.2z"/>
  </clipPath>
  <clipPath id="clipPath62" clipPathUnits="userSpaceOnUse">
   <path id="path62" d="m-285.01712,218.38768l850.39,0l0,-425.2l-850.39,0l0,425.2z"/>
  </clipPath>
  <clipPath id="clipPath64" clipPathUnits="userSpaceOnUse">
   <path id="path64" d="m-382.93802,225.7598l850.39,0l0,-425.2l-850.39,0l0,425.2z"/>
  </clipPath>
  <clipPath id="clipPath66" clipPathUnits="userSpaceOnUse">
   <path id="path66" d="m-329.46481,231.40039l850.39,0l0,-425.2l-850.39,0l0,425.2z"/>
  </clipPath>
  <clipPath id="clipPath68" clipPathUnits="userSpaceOnUse">
   <path id="path68" d="m-260.8428,214.2266l850.39,0l0,-425.2l-850.39,0l0,425.2z"/>
  </clipPath>
  <clipPath id="clipPath70" clipPathUnits="userSpaceOnUse">
   <path id="path70" d="m-248.93552,214.2266l850.39,0l0,-425.2l-850.39,0l0,425.2z"/>
  </clipPath>
  <clipPath id="clipPath72" clipPathUnits="userSpaceOnUse">
   <path id="path72" d="m0,425.2l850.39,0l0,-425.2l-850.39,0l0,425.2z"/>
  </clipPath>
  <clipPath id="clipPath74" clipPathUnits="userSpaceOnUse">
   <path id="path74" d="m-276.97562,171.92578l850.39,0l0,-425.2l-850.39,0l0,425.2z"/>
  </clipPath>
  <clipPath id="clipPath76" clipPathUnits="userSpaceOnUse">
   <path id="path76" d="m0,425.2l850.39,0l0,-425.2l-850.39,0l0,425.2z"/>
  </clipPath>
  <clipPath id="clipPath78" clipPathUnits="userSpaceOnUse">
   <path id="path78" d="m-225.59811,188.24759l850.39,0l0,-425.2l-850.39,0l0,425.2z"/>
  </clipPath>
  <clipPath id="clipPath80" clipPathUnits="userSpaceOnUse">
   <path id="path80" d="m-329.62302,178.792l850.39,0l0,-425.2l-850.39,0l0,425.2z"/>
  </clipPath>
  <clipPath id="clipPath82" clipPathUnits="userSpaceOnUse">
   <path id="path82" d="m-322.15482,176.72361l850.39,0l0,-425.2l-850.39,0l0,425.2z"/>
  </clipPath>
  <clipPath id="clipPath84" clipPathUnits="userSpaceOnUse">
   <path id="path84" d="m-346.77542,171.9722l850.39,0l0,-425.2l-850.39,0l0,425.2z"/>
  </clipPath>
  <clipPath id="clipPath86" clipPathUnits="userSpaceOnUse">
   <path id="path86" d="m-363.1152,171.9722l850.39,0l0,-425.2l-850.39,0l0,425.2z"/>
  </clipPath>
  <clipPath id="clipPath88" clipPathUnits="userSpaceOnUse">
   <path id="path88" d="m-329.62302,187.62989l850.39,0l0,-425.2l-850.39,0l0,425.2z"/>
  </clipPath>
  <clipPath id="clipPath90" clipPathUnits="userSpaceOnUse">
   <path id="path90" d="m-374.60791,188.9551l850.39,0l0,-425.2l-850.39,0l0,425.2z"/>
  </clipPath>
  <radialGradient y2="1" y1="1" id="svg_4" spreadMethod="pad" gradientTransform="matrix(64.51787567138672,0,0,64.51787567138672,28.93642807006836,60.95577619969845)" gradientUnits="userSpaceOnUse" r="1" cy="0" cx="0" fy="0" fx="0">
   <stop stop-color="#ffffff" id="stop9" offset="0"/>
   <stop stop-color="#ffffff" id="stop10" offset="0.25"/>
   <stop stop-color="#82c1ea" id="stop11" offset="0.55"/>
   <stop stop-color="#0099d9" id="stop12" offset="0.85"/>
   <stop stop-color="#0099d9" id="stop13" offset="1"/>
  </radialGradient>
  <radialGradient y2="1" y1="1" id="svg_5" spreadMethod="pad" gradientTransform="matrix(-63.105220794677734,0,0,-63.105220794677734,63.137596130371094,60.79101179540157)" gradientUnits="userSpaceOnUse" r="1" cy="0" cx="0" fy="0" fx="0">
   <stop stop-color="#ffffff" id="stop5" offset="0"/>
   <stop stop-color="#ffffff" id="stop6" offset="0.5"/>
   <stop stop-color="#9fd9f6" id="stop7" offset="0.75"/>
   <stop stop-color="#6dc9f3" id="stop8" offset="1"/>
  </radialGradient>
  <radialGradient y2="1" y1="1" id="svg_6" spreadMethod="pad" gradientTransform="matrix(62.95429992675781,0,0,62.95429992675781,62.95861053466797,60.95577619969845)" gradientUnits="userSpaceOnUse" r="1" cy="0" cx="0" fy="0" fx="0">
   <stop stop-color="#ffffff" id="stop1" offset="0"/>
   <stop stop-color="#ffffff" id="stop2" offset="0.5"/>
   <stop stop-color="#9fd9f6" id="stop3" offset="0.75"/>
   <stop stop-color="#57c3f1" id="stop4" offset="1"/>
  </radialGradient>
 </defs>
 <g>
  <title>Layer 1</title>
  <g id="svg_7">
   <path fill="url(#svg_6)" d="m104.26799,108.05333c13.37467,-11.412 21.836,-28.27866 21.836,-47.09733l0,0c0,-18.81867 -8.46133,-35.68533 -21.836,-47.09733l0,0l0,94.19466z" id="path4"/>
   <path fill="url(#svg_5)" d="m0,60.956c0,13.032 4.06267,25.12667 11,35.12266l0,0l0,-70.24666c-6.93733,9.99733 -11,22.092 -11,35.124" id="path8"/>
   <path fill="url(#svg_4)" d="m49.74933,121.91199c25.39867,-8.90667 43.58666,-32.83333 43.58666,-60.956l0,0c0,-28.124 -18.188,-52.05066 -43.58666,-60.956l0,0l0,121.91199z" id="path13"/>
  </g>
 </g>
</svg>